# xmcd CD database file
#
# Track frame offsets:
#	150
#	27227
#	50950
#	71262
#	108377
#	132297
#	152125
#	179412
#
# Disc length: 2987 seconds
#
# Revision: 0
# Processed by: cddbd v1.5PL3 Copyright (c) Steve Scherf et al.
# Submitted via: CDex 1.51
#
DISCID=6d0ba908
DTITLE=Light House All-Stars - Sunday Jazz A La Lighthouse
DYEAR=1900
DGENRE=Jazz
TTITLE0=Four Others
TTITLE1=All The Things You Are
TTITLE2=Creme De Menthe
TTITLE3=Viva Zapata
TTITLE4=Bernie's Tune
TTITLE5=Solitaire
TTITLE6=Morgan Davis
TTITLE7=La Soncailli
EXTD=
EXTT0=
EXTT1=
EXTT2=
EXTT3=
EXTT4=
EXTT5=
EXTT6=
EXTT7=
PLAYORDER=
